# xmcd CD database file
#
# Track frame offsets:
#	150
#	26125
#	56120
#	76335
#	105342
#	134492
#	162245
#	182130
#	207409
#	231277
#	257872
#
# Disc length: 3706 seconds
#
# Revision: 0
# Processed by: cddbd v1.5.1PL0 Copyright (c) Steve Scherf et al.
# Submitted via: CDex 1.51
#
DISCID=9a0e780b
DTITLE=Vigleik Storaas Trio - Bilder
DYEAR=1900
DGENRE=Jazz
TTITLE0=Slapp Av
TTITLE1=Ernest
TTITLE2=Monk's Picture
TTITLE3=Sco's Tune
TTITLE4=Ballade Impromptu
TTITLE5=Noe Annet
TTITLE6=Monk's Pencils
TTITLE7=Månelyst
TTITLE8=Tankalerl
TTITLE9=En Fremmed
TTITLE10='Round Midnight
EXTD=
EXTT0=
EXTT1=
EXTT2=
EXTT3=
EXTT4=
EXTT5=
EXTT6=
EXTT7=
EXTT8=
EXTT9=
EXTT10=
PLAYORDER=
